/vscmnt/brussel_pixiu_data/_data_brussel/112/vsc11236/PredSimResults/SUBJ10mtu3D/worker2.mot
version=1
nRows=9
nColumns=50
inDegrees=yes
endheader
                time	         pelvis_tilt	         pelvis_list	     pelvis_rotation	           pelvis_tx	           pelvis_ty	           pelvis_tz	       hip_flexion_r	     hip_adduction_r	      hip_rotation_r	        knee_angle_r	       ankle_angle_r	         mtp_angle_r	       hip_flexion_l	     hip_adduction_l	      hip_rotation_l	        knee_angle_l	       ankle_angle_l	         mtp_angle_l	    lumbar_extension	      lumbar_bending	     lumbar_rotation	 ercspn_r/activation	 intobl_r/activation	 extobl_r/activation	    abd_r/activation	    add_r/activation	hamstrings_r/activation	bifemsh_r/activation	glut_max_r/activation	iliopsoas_r/activation	rect_fem_r/activation	  vasti_r/activation	gastroc_r/activation	 soleus_r/activation	tib_ant_r/activation	 ercspn_l/activation	 intobl_l/activation	 extobl_l/activation	    abd_l/activation	    add_l/activation	hamstrings_l/activation	bifemsh_l/activation	glut_max_l/activation	iliopsoas_l/activation	rect_fem_l/activation	  vasti_l/activation	gastroc_l/activation	 soleus_l/activation	tib_ant_l/activation	
          0.53974266	         -6.62246778	          0.70391896	         -5.16597503	          0.65308861	          0.82270609	          0.00871897	        -13.60296474	          0.33917720	          3.78117645	         -6.07523065	          6.70662535	         27.62026605	         33.03218153	         -1.10298314	         -4.56481443	         -7.52242448	          4.04651949	          0.26053101	         -5.03885078	          1.09166581	          3.08000249	          0.06404840	          0.00999999	          0.01000000	          0.05811600	          0.01773423	          0.03416460	          0.18319561	          0.04254791	          0.33609377	          0.01000003	          0.01000000	          0.29679731	          0.20420261	          0.02153220	          0.12297901	          0.13598109	          0.01000001	          0.01179913	          0.13859619	          0.09763211	          0.27417555	          0.03005228	          0.05633356	          0.01000004	          0.01000000	          0.01000000	          0.00999999	          0.32242445	
          0.55053751	         -6.64836260	          0.64201029	         -5.18587148	          0.66844047	          0.82162764	          0.00844738	        -13.56207597	          0.39993029	          3.34976708	         -8.01226701	          6.02071351	         29.27579607	         32.74941798	         -0.85395474	         -3.56653233	         -8.73193140	          3.74660498	          0.25553645	         -4.81936612	          0.72255010	          3.37759025	          0.09925038	          0.01000000	          0.01000000	          0.04925443	          0.08499194	          0.03799778	          0.15526181	          0.03606017	          0.32620998	          0.01000008	          0.01000003	          0.25154145	          0.19352651	          0.01824895	          0.10503636	          0.11962234	          0.01000001	          0.00999999	          0.18385718	          0.08338339	          0.23390839	          0.08178818	          0.04774378	          0.01000001	          0.00999999	          0.01686457	          0.01341884	          0.33953493	
          0.56133236	         -6.66545613	          0.59723252	         -5.17120376	          0.68405627	          0.82070876	          0.00811424	        -13.38102851	          0.44244256	          2.87344144	        -10.22823782	          5.23546516	         30.81542712	         32.30522701	         -0.62524421	         -2.55591756	         -9.81926164	          3.37046128	          0.24899687	         -4.57870926	          0.32603717	          3.66060055	          0.10528310	          0.00999999	          0.01000000	          0.04174407	          0.07203235	          0.03873154	          0.13158737	          0.03056169	          0.30837682	          0.01000004	          0.01046786	          0.21318622	          0.17820683	          0.01546634	          0.09998571	          0.10739768	          0.01000000	          0.04528293	          0.15582254	          0.07444199	          0.19824188	          0.10863863	          0.04046377	          0.01000000	          0.00999999	          0.01429305	          0.01137273	          0.40495886	
          0.57212722	         -6.67524230	          0.56035699	         -5.11789865	          0.69973324	          0.82004862	          0.00768621	        -13.00193472	          0.47352857	          2.34865187	        -12.79031463	          4.34954309	         32.12872394	         31.79235954	         -0.38896733	         -1.66198599	        -10.76845669	          2.88222260	          0.23739281	         -4.34139115	         -0.08090999	          3.92322658	          0.12883252	          0.00999999	          0.01000000	          0.03537891	          0.06104885	          0.03949627	          0.11152283	          0.02590162	          0.29281730	          0.01000003	          0.01139604	          0.18067942	          0.15730711	          0.01310802	          0.10952074	          0.09102161	          0.01000000	          0.08778432	          0.18241052	          0.06309970	          0.16801381	          0.13790586	          0.03429383	          0.01000000	          0.01000000	          0.01211364	          0.01000000	          0.43810167	
          0.58292207	         -6.67751727	          0.53503913	         -5.02963719	          0.71533289	          0.81973403	          0.00717318	        -12.39246633	          0.48389858	          1.77009713	        -15.72870876	          3.38597126	         33.02941322	         31.29122455	         -0.13944940	         -0.89695876	        -11.74781077	          2.45435142	          0.22558379	         -4.12021236	         -0.50034952	          4.16261782	          0.14869050	          0.00999999	          0.01000000	          0.02998430	          0.07543445	          0.04945662	          0.09451775	          0.02195212	          0.27007610	          0.01000002	          0.01000001	          0.15312929	          0.13332081	          0.01110930	          0.11119179	          0.07714256	          0.01000000	          0.11767429	          0.20597808	          0.05832528	          0.14239495	          0.14423298	          0.02906468	          0.01000000	          0.02354919	          0.01026655	          0.01000000	          0.46573878	
          0.59371692	         -6.67288826	          0.52333806	         -4.91077616	          0.73077503	          0.81983756	          0.00659137	        -11.53033565	          0.46347613	          1.12918633	        -19.05791222	          2.35061721	         33.34167600	         30.80542313	          0.11980579	         -0.25615676	        -12.76381254	          2.15237940	          0.21160863	         -3.91985242	         -0.93170870	          4.37749729	          0.16700117	          0.00999999	          0.01000000	          0.02541227	          0.09635775	          0.04191604	          0.08010562	          0.01860485	          0.24275846	          0.01000001	          0.01000000	          0.12978002	          0.11299195	          0.00999999	          0.10549313	          0.06537981	          0.01000000	          0.14319029	          0.20777993	          0.05623495	          0.12068247	          0.13522179	          0.02463287	          0.01000000	          0.05684332	          0.01000000	          0.01000000	          0.47532574	
          0.60451178	         -6.66338825	          0.52207827	         -4.76225422	          0.74600554	          0.82044726	          0.00596068	        -10.41536884	          0.40536240	          0.42042732	        -22.72727100	          1.13936720	         33.03410046	         30.28364015	          0.38059137	          0.26595981	        -13.72486568	          2.03689305	          0.19736995	         -3.74244493	         -1.36887113	          4.56523055	          0.17746162	          0.01000000	          0.01000000	          0.02153739	          0.10825665	          0.03552501	          0.06789107	          0.01576797	          0.21314067	          0.01000001	          0.00999999	          0.10999106	          0.09576285	          0.00999999	          0.09986653	          0.05541065	          0.01000000	          0.16038518	          0.19704106	          0.05490558	          0.10228072	          0.12294162	          0.02087684	          0.01000000	          0.08408424	          0.01000002	          0.01000001	          0.46374368	
          0.61530663	         -6.65118147	          0.52423049	         -4.58595074	          0.76099820	          0.82160356	          0.00530219	         -9.07553869	          0.30464325	         -0.35983995	        -26.61992965	         -0.38754102	         32.15767866	         29.67543331	          0.63407516	          0.69037512	        -14.53948375	          2.13406392	          0.18621943	         -3.58775411	         -1.80215365	          4.72424080	          0.18423007	          0.01000000	          0.01000000	          0.01825335	          0.11853358	          0.03010856	          0.06933707	          0.01336365	          0.18064086	          0.01000000	          0.00999999	          0.09321954	          0.08116086	          0.01000002	          0.09581849	          0.04696159	          0.01000000	          0.17030650	          0.18425859	          0.05534307	          0.08668489	          0.11121558	          0.01769352	          0.01000000	          0.10161601	          0.01000000	          0.01000000	          0.44155293	
          0.62610148	         -6.63786167	          0.51951747	         -4.38440423	          0.77574291	          0.82327303	          0.00463388	         -7.55663609	          0.16062465	         -1.21357439	        -30.62694244	         -2.12984802	         30.49660889	         28.95192304	          0.86865709	          1.04698805	        -15.15084375	          2.43206394	          0.18646627	         -3.45490468	         -2.21841394	          4.85386830	          0.18461395	          0.01000000	          0.01000000	          0.01547007	          0.17986945	          0.02551793	          0.06784760	          0.01132596	          0.15309662	          0.01000000	          0.00999999	          0.07900536	          0.06878539	          0.09155368	          0.08120804	          0.03980085	          0.01000000	          0.17895288	          0.15774380	          0.05730177	          0.07346712	          0.09425757	          0.01499560	          0.01000000	          0.11461790	          0.01000000	          0.01000000	          0.40102668	
